<svg xmlns="http://www.w3.org/2000/svg" version="1.1" xmlns:xlink="http://www.w3.org/1999/xlink" width="512" height="512" x="0" y="0" viewBox="0 0 512 512" style="enable-background:new 0 0 512 512" xml:space="preserve" class=""><g><path d="M476 56h-20V44a28.031 28.031 0 0 0-28-28H84a28.031 28.031 0 0 0-28 28v12H36A28.031 28.031 0 0 0 8 84v312a28.031 28.031 0 0 0 28 28h160.9l-10.67 32H168a8 8 0 0 0-8 8v16h-56a8 8 0 0 0 0 16h304a8 8 0 0 0 0-16h-56v-16a8 8 0 0 0-8-8h-18.23l-10.67-32H476a28.031 28.031 0 0 0 28-28V84a28.031 28.031 0 0 0-28-28ZM72 44a12.01 12.01 0 0 1 12-12h344a12.01 12.01 0 0 1 12 12v20H72Zm0 36h368v228a12.01 12.01 0 0 1-12 12H84a12.01 12.01 0 0 1-12-12Zm264 392v8H176v-8Zm-132.9-16 10.67-32h84.46l10.67 32ZM488 396a12.01 12.01 0 0 1-12 12H36a12.01 12.01 0 0 1-12-12v-12h464Zm0-28H24V84a12.01 12.01 0 0 1 12-12h20v236a28.031 28.031 0 0 0 28 28h344a28.031 28.031 0 0 0 28-28V72h20a12.01 12.01 0 0 1 12 12Z" fill="#000000" opacity="1" data-original="#000000" class=""></path><path d="M96 40h-8a8 8 0 0 0 0 16h8a8 8 0 0 0 0-16ZM128 40h-8a8 8 0 0 0 0 16h8a8 8 0 0 0 0-16ZM160 40h-8a8 8 0 0 0 0 16h8a8 8 0 0 0 0-16ZM96 288h56a8 8 0 0 0 8-8V120a8 8 0 0 0-8-8H96a8 8 0 0 0-8 8v160a8 8 0 0 0 8 8Zm8-160h40v144h-40ZM184 192h232a8 8 0 0 0 8-8v-64a8 8 0 0 0-8-8H184a8 8 0 0 0-8 8v64a8 8 0 0 0 8 8Zm8-64h216v48H192ZM184 224h232a8 8 0 0 0 0-16H184a8 8 0 0 0 0 16ZM184 256h232a8 8 0 0 0 0-16H184a8 8 0 0 0 0 16ZM184 288h168a8 8 0 0 0 0-16H184a8 8 0 0 0 0 16ZM384 272h-8a8 8 0 0 0 0 16h8a8 8 0 0 0 0-16Z" fill="#000000" opacity="1" data-original="#000000" class=""></path></g></svg>