<svg xmlns="http://www.w3.org/2000/svg" version="1.1" xmlns:xlink="http://www.w3.org/1999/xlink" width="512" height="512" x="0" y="0" viewBox="0 0 64 64" style="enable-background:new 0 0 512 512" xml:space="preserve" class=""><g><path d="M44.95 0H19.04c-2.6 0-4.71 2.12-4.71 4.72v54.55c0 2.6 2.12 4.72 4.71 4.72h25.91c2.6 0 4.72-2.12 4.72-4.72V4.72C49.68 2.12 47.56 0 44.95 0zM16.26 9.56h31.47v43.82H16.26zm2.78-7.62h25.91c1.53 0 2.78 1.25 2.78 2.78v2.89H16.26V4.72c0-1.53 1.25-2.78 2.78-2.78zm25.91 60.12H19.04c-1.53 0-2.78-1.25-2.78-2.78v-3.96h31.47v3.96a2.774 2.774 0 0 1-2.78 2.78z" fill="#000000" opacity="1" data-original="#000000" class=""></path><path d="M27.64 5.75h8.73c.54 0 .97-.43.97-.97s-.43-.97-.97-.97h-8.73c-.54 0-.97.43-.97.97s.43.97.97.97zM33.38 57.72h-2.75c-.54 0-.97.43-.97.97s.43.97.97.97h2.75a.97.97 0 0 0 0-1.94zM29.52 36.68c-1.54 0-2.78 1.25-2.78 2.78s1.25 2.78 2.78 2.78a2.78 2.78 0 0 0 0-5.56zm0 3.63c-.47 0-.84-.38-.84-.85s.38-.85.84-.85.85.38.85.85-.38.85-.85.85zM37.66 36.68c-1.54 0-2.78 1.25-2.78 2.78s1.25 2.78 2.78 2.78a2.78 2.78 0 0 0 0-5.56zm0 3.63a.85.85 0 1 1 0-1.7c.47 0 .84.38.84.85.01.47-.37.85-.84.85zM43.78 24.21c-.35-.5-.93-.8-1.54-.8H25.69l-.49-2a.982.982 0 0 0-.94-.74h-3.41c-.54 0-.97.43-.97.97s.43.97.97.97h2.65l2.92 11.84c.11.44.5.74.94.74h.01c.01 0 .02.01.03.01h11.94c.8 0 1.51-.5 1.77-1.24l2.91-8.04c.2-.57.11-1.21-.24-1.71zm-4.44 9.06H28.12l-1.95-7.91h15.98z" fill="#000000" opacity="1" data-original="#000000" class=""></path></g></svg>