<svg xmlns="http://www.w3.org/2000/svg" version="1.1" xmlns:xlink="http://www.w3.org/1999/xlink" width="512" height="512" x="0" y="0" viewBox="0 0 1707 1707" style="enable-background:new 0 0 512 512" xml:space="preserve" fill-rule="evenodd" class=""><g><path d="M972 1706H270c-95 0-174-78-174-174V174C96 78 175 0 270 0h702c96 0 174 78 174 174v850c0 26-40 26-40 0V174c0-73-60-134-134-134H270c-73 0-134 61-134 134v1358c0 74 61 134 134 134h702c83 0 95-65 122-38 30 31-62 78-122 78z" fill="#000000" opacity="1" data-original="#000000" class=""></path><path d="M1126 315H797c-11 0-20-8-20-20 0-85-70-155-156-155s-155 70-155 155c0 12-9 20-20 20H116c-26 0-26-40 0-40h311c10-98 93-175 194-175s185 77 195 175h310c26 0 26 40 0 40zM912 1429H116c-26 0-26-40 0-40h796c26 0 26 40 0 40z" fill="#000000" opacity="1" data-original="#000000" class=""></path><path d="M621 311c-88 0-88-135 0-135 89 0 89 135 0 135zm0-95c-36 0-36 55 0 55s36-55 0-55zM756 1568H487c-27 0-27-40 0-40h269c26 0 26 40 0 40zM1248 1706c-200 0-362-162-362-362s162-362 362-362 362 162 362 362-162 362-362 362zm0-684c-178 0-322 144-322 322s144 322 322 322 322-144 322-322-144-322-322-322z" fill="#000000" opacity="1" data-original="#000000" class=""></path><path d="M1490 1364c-11 0-20-9-20-20 0-123-99-222-222-222s-223 99-223 222c0 26-40 26-40 0 0-145 118-262 263-262s262 117 262 262c0 11-9 20-20 20zM1248 1533c-104 0-104-157 0-157 103 0 103 157 0 157zm0-117c-51 0-51 77 0 77s51-77 0-77z" fill="#000000" opacity="1" data-original="#000000" class=""></path><path d="M1248 1416c-11 0-20-9-20-20v-193c0-26 40-26 40 0v193c0 11-9 20-20 20zM359 1014h-99c-19 0-34-16-34-35V786c0-19 15-34 34-34h99c19 0 34 15 34 34v193c0 19-15 35-34 35zm-93-40h87V792h-87zM564 1014h-99c-19 0-34-16-34-35V676c0-19 15-34 34-34h99c19 0 34 15 34 34v303c0 19-15 35-34 35zm-93-40h87V682h-87zM769 1014h-99c-19 0-34-16-34-35V786c0-19 15-34 34-34h99c19 0 34 15 34 34v193c0 19-15 35-34 35zm-93-40h87V792h-87zM974 1014h-99c-19 0-34-16-34-35V676c0-19 15-34 34-34h99c19 0 34 15 34 34v303c0 19-15 35-34 35zm-93-40h87V682h-87zM361 667c-19 0-27-24-12-36l124-99c20-17 45 15 25 31l-124 99c-4 3-8 5-13 5zm319-9c-4 0-9-2-12-4l-121-92c-21-16 3-48 24-32l121 92c15 12 7 36-12 36zm73-2c-18 0-27-23-13-35l161-135c20-17 46 14 26 30L766 651c-4 4-9 5-13 5z" fill="#000000" opacity="1" data-original="#000000" class=""></path><path d="M522 585c-88 0-88-134 0-134 87 0 88 134 0 134zm0-94c-36 0-36 54 0 54 35 0 35-54 0-54zM717 733c-88 0-88-133 0-133s88 133 0 133zm0-94c-36 0-35 54 0 54s35-54 0-54zM950 538c-88 0-88-134 0-134s88 134 0 134zm0-94c-35 0-35 54 0 54s35-54 0-54zM319 733c-88 0-88-133 0-133s88 133 0 133zm0-94c-36 0-36 54 0 54 35 0 35-54 0-54zM841 1158H269c-27 0-27-40 0-40h572c26 0 26 40 0 40zM768 1302H269c-27 0-27-40 0-40h499c26 0 26 40 0 40z" fill="#000000" opacity="1" data-original="#000000" class=""></path></g></svg>