<?xml version="1.0" encoding="UTF-8"?>
<!DOCTYPE svg PUBLIC "-//W3C//DTD SVG 1.1//EN" "http://www.w3.org/Graphics/SVG/1.1/DTD/svg11.dtd">
<!-- Creator: CorelDRAW X7.4 EN Portable -->
<svg xmlns="http://www.w3.org/2000/svg" xml:space="preserve" width="10.5607in" height="9.53333in" version="1.1" style="shape-rendering:geometricPrecision; text-rendering:geometricPrecision; image-rendering:optimizeQuality; fill-rule:evenodd; clip-rule:evenodd"
viewBox="0 0 11172 10085"
 xmlns:xlink="http://www.w3.org/1999/xlink">
 <defs>
  <style type="text/css">
   <![CDATA[
    .fil4 {fill:#FEFEFE;fill-rule:nonzero}
    .fil19 {fill:#FBD5D9;fill-rule:nonzero}
    .fil20 {fill:#F8B9C2;fill-rule:nonzero}
    .fil9 {fill:#F7AFB5;fill-rule:nonzero}
    .fil21 {fill:#F6A8BA;fill-rule:nonzero}
    .fil12 {fill:#E5839C;fill-rule:nonzero}
    .fil8 {fill:#E1EBF7;fill-rule:nonzero}
    .fil6 {fill:#B9E4F2;fill-rule:nonzero}
    .fil17 {fill:#A0A0BB;fill-rule:nonzero}
    .fil13 {fill:#52345B;fill-rule:nonzero}
    .fil18 {fill:#4C4A79;fill-rule:nonzero}
    .fil23 {fill:#243C75;fill-rule:nonzero}
    .fil24 {fill:#243C75;fill-rule:nonzero}
    .fil10 {fill:#354F8B;fill-rule:nonzero}
    .fil1 {fill:#354F8B;fill-rule:nonzero}
    .fil11 {fill:#72A6D8;fill-rule:nonzero}
    .fil0 {fill:#72A6D8;fill-rule:nonzero}
    .fil7 {fill:#91C3F2;fill-rule:nonzero}
    .fil5 {fill:#91C3F2;fill-rule:nonzero}
    .fil2 {fill:#ADD7FF;fill-rule:nonzero}
    .fil3 {fill:#ADD7FF;fill-rule:nonzero}
    .fil16 {fill:#E82E3B;fill-rule:nonzero}
    .fil14 {fill:#E82E3B;fill-rule:nonzero}
    .fil22 {fill:#EF4D59;fill-rule:nonzero}
    .fil15 {fill:#EF4D59;fill-rule:nonzero}
   ]]>
  </style>
 </defs>
 <g id="Layer_x0020_1">
  <metadata id="CorelCorpID_0Corel-Layer"/>
  <path class="fil0" d="M9749 6112c50,-105 101,-214 98,-330 -2,-107 2,-227 -26,-330 -28,-104 -33,-213 -22,-320 37,-335 178,-314 231,-295 51,19 81,70 93,157 9,69 -4,399 96,340 117,-69 77,-408 84,-523 11,-173 61,-361 178,-492 58,-65 147,-117 229,-87 48,17 83,62 105,109 66,141 31,300 -12,442 -19,60 -187,345 -28,302 38,-10 335,-297 394,-38 21,91 -72,197 -224,332 -94,85 -453,318 -423,418 13,44 56,34 100,24 59,-13 120,-26 118,84 -3,108 -135,200 -226,250 -43,24 -91,39 -132,66 -49,31 -106,101 -60,159 20,25 55,35 74,61 20,26 19,63 4,93 -14,29 -39,52 -65,72 -166,127 -387,169 -596,150 -208,-19 -408,-94 -600,-177l610 -467z"/>
  <path class="fil1" d="M9927 6334c-3,0 -6,-1 -8,-2 -5,-5 -6,-13 -2,-19 31,-38 60,-78 88,-119 -1,3 -2,6 -1,9 1,6 6,10 12,10 1,0 2,0 3,0 2,0 3,-1 5,-1 -28,40 -57,79 -87,117 -2,4 -6,5 -10,5zm79 -142c72,-103 135,-212 191,-322 2,2 4,4 6,7 2,2 6,4 9,4 3,0 6,-1 9,-3 5,-5 6,-13 1,-18 -4,-5 -8,-10 -12,-15 52,-106 98,-213 138,-318 -1,2 -1,5 0,7 1,6 7,10 12,10 1,0 3,0 4,0 2,-1 4,-2 6,-2 -82,214 -188,435 -325,639 -10,2 -21,4 -31,7 -3,0 -6,2 -8,4zm343 -666c180,-473 243,-912 260,-1057 4,-33 6,-50 6,-50 0,-7 6,-12 12,-12 1,0 1,0 2,0 7,1 12,7 11,14 0,1 -44,518 -259,1091 -8,2 -16,5 -24,6 -4,1 -7,4 -8,8z"/>
  <path class="fil1" d="M10360 5544c-5,0 -11,-4 -12,-10 -1,-2 -1,-5 0,-7 0,0 1,-1 1,-1 1,-4 4,-7 8,-8 8,-1 16,-4 24,-6 125,-36 255,-112 365,-189 116,-82 208,-164 243,-196 10,-10 15,-15 15,-15 3,-2 6,-3 9,-3 3,0 7,1 9,4 5,5 5,13 0,18 0,0 -87,84 -213,177 -124,93 -285,194 -439,234 -2,0 -4,1 -6,2 -1,0 -3,0 -4,0z"/>
  <path class="fil1" d="M10212 5881c-3,0 -7,-2 -9,-4 -2,-3 -4,-5 -6,-7 -93,-111 -148,-282 -180,-449 -33,-170 -43,-336 -43,-429 0,-3 0,-7 0,-10 0,-7 6,-13 13,-13 0,0 0,0 0,0 7,0 13,6 13,13 0,3 0,7 0,10 0,91 9,256 42,424 31,161 84,324 168,429 4,5 8,10 12,15 5,5 4,13 -1,18 -3,2 -6,3 -9,3z"/>
  <path class="fil1" d="M10016 6213c-6,0 -11,-4 -12,-10 -1,-3 0,-6 1,-9 0,-1 1,-1 1,-2 2,-2 5,-4 8,-4 10,-3 21,-5 31,-7 412,-97 544,-227 550,-233l0 -1c2,-2 6,-4 9,-4 3,0 7,2 9,4 5,5 6,13 1,18 -2,2 -139,146 -590,247 -2,0 -3,1 -5,1 -1,0 -2,0 -3,0z"/>
  <path class="fil1" d="M10129 6515c-81,0 -182,-13 -281,-58 -6,-3 -9,-10 -6,-17 2,-4 7,-7 11,-7 2,0 4,0 6,1 94,43 191,55 270,55 0,0 0,0 0,0 91,0 159,-16 174,-20l3 -1c1,0 2,0 4,0 5,0 10,3 12,9 2,7 -2,14 -9,16 -1,0 -76,22 -184,22z"/>
  <path class="fil2" d="M1525 4522c-31,0 -61,-4 -90,-11l12 -83c-33,-8 -65,-21 -93,-38l-50 67c-52,-33 -96,-77 -129,-128l67 -50c-17,-29 -30,-60 -38,-94l-83 12c-7,-29 -10,-59 -10,-90 0,-31 3,-62 10,-91l83 12c8,-33 21,-65 38,-93l-67 -50c33,-52 77,-96 129,-128l50 67c28,-18 60,-31 93,-39l-12 -83c29,-6 59,-10 90,-10 32,0 62,4 91,10l-12 83c33,8 65,21 93,39l50 -67c52,32 96,76 129,128l-68 50c18,28 31,60 39,93l83 -12c7,29 10,60 10,91 0,31 -3,61 -10,90l-83 -12c-8,34 -21,65 -39,94l68 50c-33,51 -77,95 -129,128l-50 -67c-28,17 -60,30 -93,38l12 83c-29,7 -59,11 -91,11zm0 -636c-121,0 -220,99 -220,221 0,121 99,220 220,220 122,0 221,-99 221,-220 0,-122 -99,-221 -221,-221z"/>
  <path class="fil3" d="M8470 1723c-54,0 -107,-7 -159,-18l22 -146c-59,-14 -114,-37 -164,-68l-88 118c-90,-58 -167,-134 -225,-225l118 -87c-30,-51 -54,-106 -68,-164l-145 21c-12,-51 -18,-104 -18,-159 0,-55 6,-108 18,-159l145 21c14,-58 38,-113 68,-163l-118 -88c58,-91 135,-167 225,-225l88 118c50,-31 105,-54 164,-68l-22 -145c52,-12 105,-18 159,-18 55,0 108,6 159,18l-21 145c59,14 114,37 164,68l87 -118c91,58 168,134 225,225l-118 88c31,50 54,105 68,163l146 -21c11,51 18,104 18,159 0,55 -7,108 -18,159l-146 -21c-14,58 -37,113 -68,164l118 87c-57,91 -134,167 -225,225l-87 -118c-50,31 -105,54 -164,68l21 146c-51,11 -104,18 -159,18zm0 -1114c-24,0 -50,2 -75,7 -152,29 -275,152 -304,303 -46,247 141,462 379,462 25,0 50,-2 76,-7 152,-29 274,-151 303,-303 47,-247 -141,-462 -379,-462z"/>
  <path class="fil3" d="M4268 895c-98,0 -178,-80 -178,-178 0,-98 80,-178 178,-178 98,0 177,80 177,178l0 0c0,98 -79,178 -177,178zm0 -287c-60,0 -109,49 -109,109 0,60 49,109 109,109 60,0 108,-49 109,-109 -1,-60 -49,-109 -109,-109zm177 109l0 0z"/>
  <path class="fil3" d="M808 3050c-153,0 -278,-124 -278,-277 0,-154 125,-278 278,-278 153,0 278,124 278,278l0 0c0,153 -125,277 -278,277zm0 -448c-47,0 -89,19 -120,50 -31,31 -50,73 -50,121 0,47 19,89 50,120 31,31 73,50 120,50 47,0 89,-19 120,-50 31,-31 50,-73 50,-120 0,-48 -19,-90 -50,-121 -31,-31 -73,-50 -120,-50zm278 171l0 0z"/>
  <path class="fil3" d="M10423 3328c-154,0 -278,-124 -278,-278 0,-153 124,-278 278,-278 153,0 278,125 278,278l0 0c0,154 -125,278 -278,278zm0 -448c-47,0 -89,19 -120,50 -31,31 -50,73 -50,120 0,47 19,90 50,120 31,31 73,50 120,50 47,0 89,-19 120,-50 31,-30 50,-73 50,-120 0,-47 -19,-89 -50,-120 -31,-31 -73,-50 -120,-50zm278 170l0 0z"/>
  <path class="fil3" d="M1746 745c-21,0 -43,-4 -64,-12 -87,-35 -130,-135 -95,-222 27,-67 91,-108 159,-108 21,0 42,4 63,12 88,35 130,134 95,222 -26,67 -90,108 -158,108z"/>
  <path class="fil4" d="M1656 561l39 85c2,5 6,9 11,10 5,2 10,1 15,-2l128 -79c9,-5 11,-16 6,-25 -5,-9 -16,-11 -25,-6l-111 69 -30 -67c-4,-9 -14,-13 -24,-9 -9,4 -13,15 -9,24z"/>
  <path class="fil0" d="M10594 1468c5,95 -67,175 -161,181 -95,5 -175,-67 -181,-161 -5,-94 67,-175 161,-180 94,-6 175,66 181,160z"/>
  <path class="fil4" d="M10336 1504l71 62c4,3 10,4 15,4 5,-1 10,-4 12,-8l83 -127c6,-8 3,-19 -5,-25 -8,-5 -20,-3 -25,6l-72 108 -55 -47c-7,-7 -19,-6 -25,2 -7,7 -6,19 1,25z"/>
  <path class="fil5" d="M1622 4986c0,35 -28,63 -62,63 -35,0 -63,-28 -63,-63 0,-34 28,-63 63,-63 34,0 62,29 62,63z"/>
  <path class="fil0" d="M956 5728c-21,0 -38,-17 -38,-39 0,-21 17,-38 38,-38 22,0 39,17 39,38 0,22 -17,39 -39,39z"/>
  <path class="fil5" d="M1265 6481c-21,0 -38,-17 -38,-38 0,-21 17,-38 38,-38 21,0 39,17 39,38 0,21 -18,38 -39,38z"/>
  <path class="fil6" d="M4976 7715c-32,0 -58,-26 -58,-58 0,-32 26,-58 58,-58 33,0 59,26 59,58 0,32 -26,58 -59,58z"/>
  <path class="fil5" d="M10280 3822c0,34 -29,62 -63,62 -35,0 -63,-28 -63,-62 0,-35 28,-63 63,-63 34,0 63,28 63,63z"/>
  <path class="fil5" d="M7188 150c0,34 -28,63 -63,63 -35,0 -63,-29 -63,-63 0,-35 28,-63 63,-63 35,0 63,28 63,63z"/>
  <path class="fil5" d="M1255 3323c-11,0 -20,-9 -20,-21l0 -141c0,-11 9,-20 20,-20 12,0 21,9 21,20l0 141c0,12 -9,21 -21,21z"/>
  <path class="fil5" d="M1326 3252l-141 0c-11,0 -20,-9 -20,-20 0,-11 9,-20 20,-20l141 0c11,0 20,9 20,20 0,11 -9,20 -20,20z"/>
  <path class="fil6" d="M9605 3157c-11,0 -20,-9 -20,-20l0 -50 41 0 0 50c0,11 -9,20 -21,20zm21 -110l-41 0 0 -51c0,-11 9,-20 20,-20 12,0 21,9 21,20l0 51z"/>
  <path class="fil6" d="M9676 3087l-141 0c-11,0 -20,-9 -20,-20 0,-11 9,-20 20,-20l141 0c11,0 20,9 20,20 0,11 -9,20 -20,20z"/>
  <path class="fil3" d="M1418 4768c-11,0 -20,-9 -20,-20l0 -51 -51 0c-11,0 -20,-9 -20,-20 0,-11 9,-20 20,-20l51 0 0 -51c0,-11 9,-20 20,-20 11,0 20,9 20,20l0 51 51 0c11,0 20,9 20,20 0,11 -9,20 -20,20l-51 0 0 51c0,11 -9,20 -20,20z"/>
  <path class="fil5" d="M3996 548c-11,0 -20,-9 -20,-20l0 -51 40 0 0 51c0,11 -9,20 -20,20zm20 -111l-40 0 0 -50c0,-12 9,-21 20,-21 11,0 20,9 20,21l0 50z"/>
  <path class="fil5" d="M4067 477l-142 0c-11,0 -20,-9 -20,-20 0,-11 9,-20 20,-20l142 0c11,0 20,9 20,20 0,11 -9,20 -20,20z"/>
  <path class="fil5" d="M10280 7061c-12,0 -20,-9 -20,-20l0 -51 40 0 0 51c0,11 -9,20 -20,20zm20 -111l-40 0 0 -51c0,-11 8,-20 20,-20 11,0 20,9 20,20l0 51z"/>
  <path class="fil7" d="M10350 6990l-141 0c-11,0 -20,-9 -20,-20 0,-11 9,-20 20,-20l141 0c11,0 20,9 20,20 0,11 -9,20 -20,20z"/>
  <path class="fil3" d="M5940 874c-137,0 -258,-69 -331,-174l331 -228 387 110c-48,169 -203,292 -387,292z"/>
  <path class="fil1" d="M5977 402l0 -402c148,0 277,80 346,199l-346 203z"/>
  <path class="fil5" d="M6327 582l-387 -110 347 -202c35,59 55,128 55,202 0,39 -5,75 -15,110l0 0z"/>
  <path class="fil0" d="M5609 700l0 0c-44,-65 -70,-143 -70,-228 0,-221 180,-401 401,-401l0 401 -331 228z"/>
  <path class="fil5" d="M9820 8388c-245,0 -444,-199 -444,-444 0,-246 199,-445 444,-445 116,0 221,44 300,116l-79 83c-58,-52 -136,-84 -221,-84 -182,0 -329,147 -329,330 0,182 147,330 329,330 183,0 331,-148 331,-330 0,-91 -37,-172 -95,-232l79 -83c80,81 130,192 130,315 0,245 -199,444 -445,444z"/>
  <path class="fil3" d="M9820 8159c-118,0 -215,-96 -215,-215l0 0c0,-119 97,-216 215,-216 55,0 104,20 142,53l-82 86c-16,-13 -37,-21 -60,-21 -53,0 -97,44 -97,98l0 0c0,54 44,97 97,97 54,0 98,-43 98,-97l0 0c0,-24 -9,-46 -23,-63l82 -86c37,39 59,91 59,149l0 0c0,119 -96,215 -216,215z"/>
  <path class="fil0" d="M9831 7947l-4 -4 17 -18 -8 -7 -17 19 -3 -3 64 -67 82 -86 79 -83 79 -83 85 -88 -1 3 3 8 7 3 5 0 -84 88 -79 83 -79 83 -82 86 -64 66zm407 -426l-13 0 2 -17 16 -17 0 5 2 8 8 3 3 0 -18 18z"/>
  <path class="fil0" d="M9839 7968l-19 -17 7 -8 4 4 15 13 -7 8zm-26 -24l-19 -17 7 -7 15 14 3 3 -6 7z"/>
  <polygon class="fil0" points="9803,7969 9796,7963 9813,7944 9819,7937 9836,7918 9844,7925 9827,7943 9820,7951 "/>
  <path class="fil0" d="M10321 7503l-68 0 -8 -3 -2 -8 0 -5 6 -70c0,-5 5,-9 10,-9 0,0 1,0 1,0 5,1 10,6 9,11l-5 64 57 0c5,0 10,4 10,10 0,5 -5,10 -10,10z"/>
  <path class="fil0" d="M10283 7541l-69 0 -7 -3 -3 -8 1 -3 6 -71c0,-6 4,-10 10,-10 0,0 0,0 1,0 5,1 9,6 9,11l-4 47 -2 17 58 0c5,0 10,4 10,10 0,6 -5,10 -10,10z"/>
  <path class="fil3" d="M1084 6265l-205 0 0 -86c-72,-13 -140,-42 -199,-82l-60 61 -145 -145 61 -60c-40,-60 -69,-127 -83,-200l-85 0 0 -205 85 0c14,-72 43,-140 83,-199l-61 -60 145 -145 60 61c59,-40 127,-69 199,-83l0 -85 205 0 0 85c73,14 140,43 200,83l57 -58 3 -3 145 145 -61 60c26,39 47,80 62,124 7,20 13,40 17,60 1,5 2,11 3,15l86 0 0 205 -86 0c-13,71 -40,137 -79,195l-3 5 3 2 58 58 -58 58 -87 87 -3 -3 -57 -58c-60,40 -127,69 -200,82l0 86zm-102 -956c-189,0 -342,153 -342,342 0,189 153,342 342,342 189,0 342,-153 342,-342 0,-189 -153,-342 -342,-342z"/>
  <polygon class="fil8" points="1560,7330 10011,7330 10011,995 1560,995 "/>
  <polygon class="fil4" points="1848,7115 9722,7115 9722,1210 1848,1210 "/>
  <polygon class="fil8" points="2357,2028 9182,2028 9182,1574 2357,1574 "/>
  <polygon class="fil8" points="2656,6372 3108,6372 3108,5236 2656,5236 "/>
  <polygon class="fil8" points="3675,6372 4128,6372 4128,4239 3675,4239 "/>
  <polygon class="fil8" points="4695,6372 5147,6372 5147,4459 4695,4459 "/>
  <polygon class="fil8" points="5714,6372 6167,6372 6167,3379 5714,3379 "/>
  <polygon class="fil8" points="7925,6684 2357,6684 2357,2568 2419,2568 2419,6622 7925,6622 "/>
  <polygon class="fil8" points="2856,4621 2815,4575 3874,3624 4855,3837 5918,2654 5964,2695 4877,3905 3892,3691 "/>
  <polygon class="fil8" points="6047,2870 5747,2583 6134,2479 "/>
  <polygon class="fil8" points="7114,2714 9182,2714 9182,2633 7114,2633 "/>
  <polygon class="fil8" points="6834,2911 9182,2911 9182,2829 6834,2829 "/>
  <polygon class="fil8" points="6834,3107 9182,3107 9182,3026 6834,3026 "/>
  <polygon class="fil8" points="6834,3303 9182,3303 9182,3222 6834,3222 "/>
  <polygon class="fil8" points="6834,3499 9182,3499 9182,3418 6834,3418 "/>
  <polygon class="fil8" points="6834,3696 9182,3696 9182,3615 6834,3615 "/>
  <polygon class="fil8" points="6834,3892 9182,3892 9182,3811 6834,3811 "/>
  <polygon class="fil8" points="6834,4088 9182,4088 9182,4007 6834,4007 "/>
  <polygon class="fil8" points="6834,4284 9182,4284 9182,4203 6834,4203 "/>
  <polygon class="fil8" points="6834,4481 9182,4481 9182,4400 6834,4400 "/>
  <polygon class="fil8" points="6834,4677 9182,4677 9182,4596 6834,4596 "/>
  <polygon class="fil8" points="6834,4873 9182,4873 9182,4792 6834,4792 "/>
  <polygon class="fil8" points="6834,5070 9182,5070 9182,4989 6834,4989 "/>
  <polygon class="fil8" points="6834,5266 9182,5266 9182,5185 6834,5185 "/>
  <polygon class="fil8" points="6834,5462 9182,5462 9182,5381 6834,5381 "/>
  <polygon class="fil8" points="6834,5658 9182,5658 9182,5577 6834,5577 "/>
  <polygon class="fil8" points="6834,5855 9182,5855 9182,5774 6834,5774 "/>
  <polygon class="fil8" points="6834,6051 9182,6051 9182,5970 6834,5970 "/>
  <polygon class="fil8" points="8148,6247 9182,6247 9182,6166 8148,6166 "/>
  <polygon class="fil9" points="8020,9295 8074,9510 8204,9487 8196,9284 "/>
  <path class="fil10" d="M7939 7289c-350,-573 -468,-52 -468,-52l573 2178c0,0 79,33 158,-23 0,0 88,-1530 -263,-2103z"/>
  <path class="fil10" d="M7875 5787c0,0 79,110 92,267 12,142 1,265 13,394 11,129 0,912 0,912 0,0 -377,192 -427,79 -101,-229 -417,-1511 -417,-1511 0,0 398,11 739,-141z"/>
  <path class="fil11" d="M8018 5723c0,0 94,176 50,439 -24,140 -101,217 -148,385 -35,125 -231,921 -231,921 0,0 -457,-56 -479,-178 -43,-247 -100,-1581 -100,-1581 0,0 541,80 908,14z"/>
  <polygon class="fil9" points="7330,9309 7339,9530 7471,9535 7505,9335 "/>
  <path class="fil11" d="M7646 7314c-233,-630 -449,-141 -449,-141l129 2242c0,0 76,42 172,13 0,0 382,-1484 148,-2114z"/>
  <path class="fil9" d="M7759 3516c-149,110 -436,90 -436,90l39 -309 17 -132c0,0 24,-29 60,-70 109,-126 329,-359 296,-164 -44,258 24,585 24,585z"/>
  <path class="fil12" d="M7531 3118c0,0 -54,110 -169,179l17 -132c0,0 24,-29 60,-70l13 -5 79 28z"/>
  <path class="fil9" d="M7082 2636c0,0 -11,551 90,624 100,74 463,-161 463,-161 0,0 256,-342 188,-598 -58,-216 -551,-316 -708,-54 -29,49 -31,114 -33,189z"/>
  <path class="fil4" d="M7371 5792c0,0 19,97 43,199 12,51 25,102 37,144 6,20 12,38 17,52 6,14 10,24 16,29 34,31 54,42 54,42l6 -2 -2 -6 -3 -1c-7,-5 -24,-16 -49,-40 -4,-2 -9,-12 -14,-25 -19,-48 -43,-146 -62,-233 -10,-43 -19,-83 -25,-113 -6,-29 -10,-48 -10,-48l-5 -3 -3 5z"/>
  <path class="fil4" d="M7581 5854c0,0 -148,1280 -153,1585 -5,303 -15,1925 -15,1925l5 4 4 -4c0,0 1,-102 2,-258 3,-471 9,-1440 13,-1667 2,-152 40,-548 78,-906 19,-179 37,-348 51,-473 7,-63 13,-114 17,-149 4,-36 6,-56 6,-56l-3 -5 -5 4z"/>
  <path class="fil13" d="M6976 2286c0,0 -38,289 185,351 148,41 306,28 318,95 11,67 32,13 59,-5 59,-37 107,45 82,135 -18,68 3,166 103,173 0,0 82,-160 119,-267 29,-84 91,-372 -98,-399 -23,-58 -89,-107 -157,-125 -186,-48 -343,5 -465,32 -57,13 -139,-94 -146,10z"/>
  <path class="fil9" d="M7302 4518c-43,56 -110,135 -182,217 -57,65 -117,132 -170,191 -99,110 -178,194 -178,194 0,0 -231,-154 -227,-211 2,-33 113,-259 202,-436 19,-37 37,-73 53,-104 34,-68 58,-114 58,-114l444 263z"/>
  <path class="fil12" d="M7120 4735c-57,65 -117,132 -170,191 -24,-119 -43,-308 -43,-308 -75,-82 -129,-168 -129,-168l146 -98 163 82c0,0 18,163 33,301z"/>
  <path class="fil9" d="M6545 4909c0,0 -168,36 -271,84 -64,30 -284,164 -445,252 -97,53 -178,82 -178,82l32 90c0,0 334,-48 618,-107 285,-59 377,-87 471,-190 94,-102 -124,-237 -227,-211z"/>
  <path class="fil14" d="M7039 3905l-306 500c0,0 200,221 414,277 146,-91 295,-419 295,-419l-403 -358z"/>
  <path class="fil15" d="M8082 4757c-4,13 -7,26 -11,39 -18,63 -36,126 -51,189 -117,502 -2,738 -2,738 -323,103 -906,36 -906,36 0,0 -7,-47 -15,-84 -50,-246 -236,-1216 -133,-1577 120,-415 359,-492 359,-492 233,-14 436,-90 436,-90 436,156 444,796 323,1241z"/>
  <path class="fil16" d="M8082 4757c-4,13 -7,26 -11,39 -18,63 -35,126 -51,189l0 0c-342,-485 -488,-837 -488,-837l163 32 198 99 189 478z"/>
  <path class="fil9" d="M8470 4937c0,0 -248,126 -295,95 -28,-19 -170,-226 -280,-390 -24,-35 -46,-69 -65,-98 -43,-63 -71,-106 -71,-106l447 -258c89,209 264,757 264,757z"/>
  <path class="fil12" d="M8194 4398c-68,101 -249,214 -299,244 -24,-35 -46,-69 -65,-98 112,-65 429,-243 364,-146z"/>
  <path class="fil1" d="M8710 6238l-1172 -156c-12,-2 -20,-12 -18,-23l106 -798c2,-11 12,-19 24,-18l1172 157c12,2 20,12 18,23l-106 798c-2,11 -12,19 -24,17z"/>
  <polygon class="fil4" points="8674,6190 7585,6044 7686,5292 8775,5437 "/>
  <polygon class="fil17" points="7649,5791 7593,5784 7631,5494 7687,5502 "/>
  <path class="fil9" d="M8175 5032c0,0 -52,163 -60,276 -6,71 3,328 0,512 -1,111 -16,196 -16,196l95 15c0,0 122,-314 210,-591 88,-276 109,-370 66,-503 -43,-132 -267,-8 -295,95z"/>
  <path class="fil15" d="M7938 3626c240,241 366,711 366,711 -194,170 -462,270 -462,270 -106,-85 -301,-443 -301,-443 0,0 -201,-350 27,-509 235,-164 370,-29 370,-29z"/>
  <path class="fil9" d="M8207 5996c0,0 -19,45 -2,81 16,36 5,93 -11,105 -17,11 -126,-6 -136,-13 -10,-7 6,-71 4,-89 -1,-19 32,-29 42,-95l103 11z"/>
  <path class="fil9" d="M8089 6041c0,0 -24,8 -52,41 -7,8 -36,34 -33,40 2,6 13,11 22,9 10,-1 41,-19 41,-19l22 -71z"/>
  <path class="fil14" d="M7323 3606l39 -76c0,0 212,9 387,-65l10 51 -156 63c0,0 -127,54 -280,27z"/>
  <path class="fil15" d="M7362 3530l41 152c0,0 257,-57 389,-153l-46 -83c0,0 -134,64 -384,84z"/>
  <path class="fil18" d="M7474 9518c0,0 -48,19 -103,11 0,0 -13,-29 -35,-29 -22,0 -48,31 -63,38 -15,7 -295,96 -200,114 3,4 333,1 406,0 8,0 15,-6 17,-14 5,-25 11,-79 -22,-120z"/>
  <path class="fil18" d="M8204 9474c0,0 -31,24 -92,23 0,0 -33,-10 -43,-8 -11,2 -29,31 -37,39 -7,9 -45,35 -69,45 -18,8 -88,31 -101,58 -5,11 3,24 16,24 21,0 78,0 118,0 25,0 50,-3 74,-10 75,-21 169,-51 174,-56 6,-6 -1,-86 -40,-115z"/>
  <path class="fil14" d="M7514 4051c0,0 -2,-6 -3,-17 -2,-10 -4,-25 -4,-43 0,-45 10,-107 51,-169 63,-93 150,-157 264,-157 46,0 96,10 150,33l6 -2 -3 -6c-55,-23 -106,-33 -153,-33 -117,0 -207,66 -271,160 -43,64 -52,128 -52,174 0,37 6,62 6,62l6 3 3 -5z"/>
  <polygon class="fil14" points="7649,3623 7710,3677 7716,3677 7716,3671 7654,3617 7648,3617 "/>
  <path class="fil9" d="M5683 5417c0,0 -21,2 -44,12 -22,10 -99,-6 -99,-6l-44 -66c0,0 16,-21 18,-24 2,-3 58,-9 58,-9 0,0 92,29 102,26 10,-2 43,15 42,22 0,6 -33,45 -33,45z"/>
  <path class="fil19" d="M3664 4370c0,0 -55,497 -55,657 51,238 219,862 219,862l219 -534 -82 -663 -301 -322z"/>
  <path class="fil20" d="M3849 6872c0,0 -30,577 -33,687 -4,109 -119,204 -191,444 -72,240 -169,1262 -169,1262l132 18c0,0 432,-1228 521,-1546 89,-319 245,-788 245,-788l-505 -77z"/>
  <path class="fil20" d="M3588 9283c0,0 -8,32 2,59 11,26 37,141 113,224l7 30 -78 -5c0,0 -103,-82 -109,-96 -5,-14 -26,-74 -32,-92 -6,-19 -38,-56 -36,-70 2,-15 -6,-69 -6,-69 0,0 50,-30 58,-32 7,-1 41,1 41,1l40 50z"/>
  <path class="fil18" d="M3456 9234c0,0 -67,71 -70,152 -2,50 6,148 -4,218l18 3 52 -156c0,0 111,164 140,175 29,11 149,28 155,29 7,1 103,-7 -44,-89 0,0 -3,31 -60,-10 -57,-40 -106,-112 -138,-170 -17,-30 -47,-94 -49,-152z"/>
  <path class="fil19" d="M4354 6902c0,0 -34,257 -69,523 0,3 -1,7 -1,10 -13,97 -26,195 -38,282 -44,328 -221,1592 -221,1592l-134 0c0,0 -114,-1040 -76,-1288 39,-248 65,-326 53,-435 -2,-21 -5,-57 -10,-104 -2,-25 -4,-52 -7,-81 -19,-207 -44,-499 -44,-499l547 0z"/>
  <path class="fil21" d="M4284 7435c-3,2 -9,5 -17,7 -116,37 -339,40 -409,40 -2,-25 -4,-52 -7,-81 85,0 398,1 434,24 5,2 5,6 -1,10z"/>
  <path class="fil1" d="M4393 2779c0,0 110,-17 150,67 39,85 -7,194 -76,248 -69,55 -120,-250 -120,-250l46 -65z"/>
  <path class="fil19" d="M4025 9309c0,0 -4,33 10,57 14,25 56,136 143,206l10 30 -78 6c0,0 -113,-68 -120,-81 -8,-12 -37,-69 -45,-86 -9,-18 -45,-50 -45,-65 0,-15 -16,-67 -16,-67 0,0 46,-37 53,-39 8,-3 41,-6 41,-6l47 45z"/>
  <path class="fil19" d="M4260 3485c0,0 -6,32 -12,76 -3,17 -5,36 -7,55 -1,12 -3,24 -4,36 -5,62 -3,112 -12,195l-296 -65c0,0 64,-109 29,-393l302 96z"/>
  <path class="fil20" d="M4248 3561c-3,17 -5,36 -7,55 -69,-35 -130,-100 -130,-100l137 45z"/>
  <path class="fil19" d="M4431 3570c-10,23 -35,36 -59,33 -73,-9 -227,-37 -357,-130 -160,-116 -81,-679 352,-659 84,4 242,355 64,756z"/>
  <path class="fil22" d="M3641 5658c0,0 -179,298 1,681 96,458 132,849 165,1094 0,0 304,43 494,3 0,0 202,-1163 176,-1778l-836 0z"/>
  <path class="fil1" d="M4455 5443c18,184 23,224 23,224 0,0 -278,126 -852,11 0,0 37,-58 74,-318 44,-308 -64,-801 -52,-1066 11,-265 180,-508 300,-563 0,0 128,87 282,67 0,0 205,372 288,552 74,161 -38,306 -82,440 -5,16 -10,32 -12,48 -5,25 -6,71 -5,129 4,128 20,314 36,476z"/>
  <path class="fil23" d="M4424 4838c-5,25 -6,71 -5,129 -507,-430 -552,-700 -552,-700l216 107 270 277 83 139c-5,16 -10,32 -12,48z"/>
  <path class="fil1" d="M3808 2911c0,0 -68,-17 -102,11 0,0 90,5 108,48l-6 -59z"/>
  <path class="fil1" d="M3855 2954c0,0 -148,-35 -181,-167 -46,-181 299,-331 347,-1l-166 168z"/>
  <path class="fil15" d="M3796 2979c0,0 -18,-20 -12,-50 10,-43 64,-163 221,-213 0,0 40,-10 51,14l-260 249z"/>
  <path class="fil1" d="M3967 3495c0,0 -245,-229 -170,-541 74,-311 631,-367 670,-14 0,0 -137,-38 -219,37 -82,74 -129,219 -154,177 -25,-43 -94,-40 -113,17 -16,46 24,133 28,208 3,46 -18,97 -42,116z"/>
  <path class="fil1" d="M4494 2892c0,0 63,206 -289,195 41,-46 33,-217 33,-217l256 22z"/>
  <path class="fil18" d="M3888 9278c0,0 -58,80 -50,160 5,50 27,146 26,217l19 0 30 -161c0,0 133,146 163,154 30,7 151,7 158,7 6,0 101,-21 -56,-83 0,0 1,32 -61,-1 -63,-32 -121,-96 -161,-149 -20,-28 -59,-87 -68,-144z"/>
  <path class="fil19" d="M4762 4872c0,0 -115,123 -181,114 -50,-6 -297,-262 -411,-384 -36,-38 -59,-63 -59,-63l129 -103 120 -97 402 533z"/>
  <path class="fil20" d="M4353 4417c0,0 -67,107 -183,185 -36,-38 -59,-63 -59,-63l129 -103 113 -19z"/>
  <path class="fil1" d="M4111 4007c-170,-89 -258,48 -257,186 2,181 248,399 248,399 0,0 219,-115 292,-223 0,0 -119,-276 -283,-362z"/>
  <path class="fil19" d="M4693 4840c0,0 129,52 212,123 83,72 487,364 487,364l-49 90c0,0 -504,-164 -822,-469l172 -108z"/>
  <path class="fil24" d="M3859 4208c0,0 -2,-17 -2,-43 0,-38 5,-93 29,-141 23,-47 65,-86 140,-93 4,0 8,0 12,0 58,0 112,36 154,82 42,47 73,103 85,141l6 3 3 -6c-14,-39 -45,-96 -88,-143 -43,-48 -98,-86 -160,-86 -4,0 -8,0 -13,1 -78,6 -123,48 -147,97 -25,50 -30,106 -30,145 0,26 3,44 3,44l5 4 3 -5z"/>
  <path class="fil24" d="M4008 3930c0,0 4,-14 11,-34 7,-21 18,-48 32,-75l-2 -6 -6 2c-28,55 -43,110 -43,111l3 5 5 -3z"/>
  <path class="fil19" d="M5343 5417c0,0 88,55 127,72 39,17 153,-25 169,-60 0,0 -20,0 -35,-2 -15,-2 -79,-72 -123,-88 -23,-8 -53,0 -60,0 -8,0 -29,-12 -29,-12l-49 90z"/>
  <path class="fil9" d="M5651 5327c0,0 -24,5 -59,-10 -36,-14 -55,-18 -74,-16 -19,3 -36,19 -20,26 16,6 33,14 33,14 0,0 71,35 155,22 26,-4 -35,-36 -35,-36z"/>
  <path class="fil9" d="M5498 5310c0,0 -53,32 -52,38 2,6 15,19 38,13 23,-6 61,-29 61,-29l-47 -22z"/>
  <path class="fil9" d="M5361 5428c0,0 16,25 34,33 0,0 6,12 23,14 0,0 4,13 31,12 0,0 7,7 24,3 0,0 -31,-16 -39,-20 -16,-9 -73,-42 -73,-42z"/>
  <path class="fil1" d="M907 8843c0,0 -1214,-1640 -833,-1991 381,-350 938,884 833,1991z"/>
  <path class="fil5" d="M188 7047c638,940 775,2006 803,2613 1,4 5,8 9,8 5,0 9,-4 9,-9 -29,-609 -166,-1677 -807,-2622 -2,-4 -8,-5 -11,-2 -4,3 -5,8 -3,12z"/>
  <path class="fil5" d="M836 8044c-1,154 -12,299 -21,421 0,4 4,8 8,9 5,0 9,-3 10,-8 8,-121 20,-268 20,-422 0,-5 -4,-9 -8,-9 -5,0 -9,4 -9,9z"/>
  <path class="fil5" d="M647 7482c-1,154 -7,293 -15,414 -1,5 3,9 8,10 4,0 8,-4 9,-8 8,-122 15,-262 15,-416 0,-5 -4,-9 -9,-9 -4,0 -8,4 -8,9z"/>
  <path class="fil5" d="M370 6977c9,68 14,147 14,226 0,51 -2,102 -6,150 0,5 4,9 8,10 5,0 9,-4 9,-8 4,-49 6,-100 6,-152 0,-79 -5,-159 -14,-229 -1,-4 -5,-8 -10,-7 -5,1 -8,5 -7,10z"/>
  <path class="fil5" d="M156 7272c99,58 203,141 293,223 4,3 9,2 12,-1 3,-4 3,-9 0,-12 -91,-82 -196,-166 -297,-225 -4,-2 -9,-1 -11,3 -3,5 -1,10 3,12z"/>
  <path class="fil5" d="M193 7370c100,58 222,150 312,231 3,3 9,3 12,-1 3,-3 3,-9 -1,-12 -90,-82 -213,-174 -314,-232 -4,-3 -9,-1 -12,3 -2,4 -1,9 3,11z"/>
  <path class="fil5" d="M402 7866c99,57 212,144 302,225 3,3 9,3 12,-1 3,-3 3,-9 -1,-12 -90,-81 -204,-169 -305,-227 -4,-3 -9,-1 -11,3 -3,4 -1,9 3,12z"/>
  <path class="fil1" d="M1219 8503c0,0 1170,-1672 780,-2012 -390,-340 -914,908 -780,2012z"/>
  <path class="fil5" d="M1876 6679c-616,961 -725,2033 -737,2642 0,5 3,9 8,9 5,0 9,-4 9,-9 12,-607 121,-1676 734,-2633 3,-4 2,-9 -2,-11 -4,-3 -10,-2 -12,2z"/>
  <path class="fil5" d="M1254 7702c-4,136 1,283 27,416 1,7 11,5 11,-1 1,-137 -13,-279 -25,-415 -1,-8 -13,-8 -13,0z"/>
  <path class="fil5" d="M1426 7136c4,154 14,294 26,415 1,4 5,8 9,7 5,0 9,-4 8,-9 -11,-121 -21,-260 -26,-414 0,-5 -4,-8 -9,-8 -4,0 -8,4 -8,9z"/>
  <path class="fil5" d="M1690 6621c-6,53 -9,113 -9,173 0,70 4,142 10,207 0,5 5,8 9,8 5,0 9,-5 8,-9 -6,-65 -10,-136 -10,-206 0,-60 3,-119 9,-171 0,-5 -3,-9 -8,-10 -4,0 -9,3 -9,8z"/>
  <path class="fil5" d="M1919 6898c-99,61 -206,152 -295,236 -3,3 -3,8 0,12 3,3 9,3 12,0 88,-83 195,-173 292,-233 4,-3 6,-8 3,-12 -2,-4 -8,-5 -12,-3z"/>
  <path class="fil5" d="M1884 6997c-99,61 -217,152 -305,236 -4,3 -4,8 -1,12 4,3 9,3 12,0 88,-83 206,-173 303,-233 4,-3 6,-8 3,-12 -2,-4 -7,-5 -12,-3z"/>
  <path class="fil5" d="M1689 7498c-99,61 -210,151 -299,235 -3,3 -3,9 0,12 3,4 9,4 12,1 88,-84 198,-174 296,-234 4,-2 5,-8 3,-12 -2,-4 -8,-5 -12,-2z"/>
  <path class="fil0" d="M1101 8062c0,0 -1179,-1666 -790,-2008 389,-342 918,904 790,2008z"/>
  <path class="fil5" d="M421 6251c617,954 727,2022 742,2630 0,4 4,8 9,8 5,0 9,-4 8,-9 -15,-609 -125,-1680 -745,-2638 -2,-4 -7,-5 -11,-3 -4,3 -6,8 -3,12z"/>
  <path class="fil5" d="M1047 7262c-4,154 -13,293 -24,414 -1,5 3,9 7,9 5,1 9,-3 10,-7 11,-121 20,-261 24,-416 0,-4 -4,-8 -8,-8 -5,-1 -9,3 -9,8z"/>
  <path class="fil5" d="M870 6696c-4,154 -13,293 -24,414 -1,5 3,9 8,9 4,1 8,-3 9,-7 11,-121 20,-261 24,-416 0,-4 -3,-8 -8,-9 -5,0 -9,4 -9,9z"/>
  <path class="fil5" d="M604 6185c6,55 9,117 9,180 0,67 -3,135 -9,197 0,4 3,9 8,9 5,0 9,-3 9,-8 6,-62 10,-131 10,-198 0,-63 -3,-126 -10,-182 -1,-5 -5,-8 -10,-8 -4,1 -8,5 -7,10z"/>
  <path class="fil5" d="M384 6476c98,59 209,149 297,232 3,3 8,3 12,-1 3,-3 3,-9 -1,-12 -88,-83 -200,-173 -299,-234 -4,-2 -10,-1 -12,3 -3,4 -1,9 3,12z"/>
  <path class="fil5" d="M419 6575c98,59 209,149 297,232 4,3 9,3 12,-1 3,-3 3,-9 0,-12 -89,-83 -200,-173 -300,-234 -4,-2 -9,-1 -12,3 -2,4 -1,9 3,12z"/>
  <path class="fil5" d="M617 7074c98,60 209,149 297,232 3,4 8,3 12,0 3,-4 3,-9 -1,-12 -88,-84 -200,-174 -299,-234 -5,-3 -10,-2 -12,2 -3,4 -1,10 3,12z"/>
  <path class="fil0" d="M991 8548c0,0 725,-996 493,-1206 -231,-209 -562,539 -493,1206z"/>
  <path class="fil5" d="M1405 7453c-383,574 -460,1221 -474,1589 -1,4 3,8 8,8 5,1 9,-3 9,-8 14,-366 91,-1010 471,-1580 3,-4 2,-9 -2,-12 -4,-2 -9,-1 -12,3z"/>
  <path class="fil5" d="M1016 8066c1,93 6,178 12,251 0,5 4,8 9,8 5,-1 8,-5 8,-9 -6,-73 -10,-158 -11,-251 0,-4 -4,-8 -9,-8 -5,0 -9,4 -9,9z"/>
  <path class="fil5" d="M1128 7725c1,94 5,178 11,252 0,4 5,8 9,7 5,0 9,-4 8,-9 -6,-73 -10,-157 -11,-250 0,-5 -4,-8 -9,-8 -4,0 -8,4 -8,8z"/>
  <path class="fil5" d="M1293 7417c-5,39 -8,83 -8,128 0,35 2,70 4,102 1,5 5,9 10,8 4,0 8,-4 7,-9 -2,-32 -3,-67 -3,-101 0,-44 2,-88 7,-126 0,-4 -3,-9 -8,-9 -4,-1 -9,2 -9,7z"/>
  <path class="fil5" d="M1430 7584c-61,36 -129,90 -183,140 -4,3 -4,8 -1,12 3,3 9,4 12,0 54,-49 121,-102 181,-137 4,-2 5,-7 3,-12 -3,-4 -8,-5 -12,-3z"/>
  <path class="fil5" d="M1408 7644c-61,36 -129,89 -184,139 -3,3 -3,9 0,12 3,4 8,4 12,1 54,-49 121,-102 181,-137 4,-3 5,-8 3,-12 -3,-4 -8,-6 -12,-3z"/>
  <path class="fil5" d="M1284 7944c-60,36 -129,89 -183,139 -4,3 -4,9 -1,12 4,4 9,4 13,1 53,-49 121,-102 180,-137 4,-3 6,-8 3,-12 -2,-4 -7,-6 -12,-3z"/>
  <polygon class="fil15" points="1478,9273 1473,9308 1462,9381 1357,10085 731,10085 626,9381 615,9308 610,9273 "/>
  <polygon class="fil14" points="1473,9308 1462,9381 626,9381 615,9308 "/>
  <path class="fil15" d="M1490 9339l-892 0c-29,0 -52,-23 -52,-52 0,-28 23,-51 52,-51l892 0c29,0 52,23 52,51 0,29 -23,52 -52,52z"/>
 </g>
</svg>
